<?xml version="1.0" encoding="UTF-8" standalone="no"?>
<!-- Created with Inkscape (http://www.inkscape.org/) -->

<svg
   version="1.1"
   id="svg18"
   width="666.66669"
   height="666.66669"
   viewBox="0 0 666.66669 666.66669"
   sodipodi:docname="5138232.ai"
   inkscape:version="0.0"
   xmlns:inkscape="http://www.inkscape.org/namespaces/inkscape"
   xmlns:sodipodi="http://sodipodi.sourceforge.net/DTD/sodipodi-0.dtd"
   xmlns="http://www.w3.org/2000/svg"
   xmlns:svg="http://www.w3.org/2000/svg">
  <defs
     id="defs22">
    <clipPath
       clipPathUnits="userSpaceOnUse"
       id="clipPath36">
      <path
         d="M 0,500 H 500 V 0 H 0 Z"
         id="path34" />
    </clipPath>
  </defs>
  <sodipodi:namedview
     id="namedview20"
     pagecolor="#ffffff"
     bordercolor="#000000"
     borderopacity="0.25"
     inkscape:showpageshadow="2"
     inkscape:pageopacity="0.0"
     inkscape:pagecheckerboard="0"
     inkscape:deskcolor="#d1d1d1"
     showgrid="false"
     inkscape:zoom="0.50063159"
     inkscape:cx="286.63793"
     inkscape:cy="431.455"
     inkscape:window-width="1400"
     inkscape:window-height="818"
     inkscape:window-x="20"
     inkscape:window-y="62"
     inkscape:window-maximized="1"
     inkscape:current-layer="g26" />
  <g
     id="g26"
     inkscape:groupmode="layer"
     inkscape:label="Page 1"
     transform="matrix(1.3333333,0,0,-1.3333333,0,666.66667)">
    <path
       d="M 0,0 H 500 V 500 H 0 Z"
       style="fill:#ffffff;fill-opacity:1;fill-rule:nonzero;stroke:none"
       id="path28" />
    <g
       id="g30">
      <g
         id="g32"
         clip-path="url(#clipPath36)">
        <g
           id="g38"
           transform="translate(430.5303,90.4276)">
          <path
             d="m 0,0 c 47.49,36.11 68.64,136.24 -8.47,185.34 -51.05,32.5 -82.8,13.96 -140.23,35.46 -70.11,26.24 -80.56,105.52 -165.84,66.51 -45.18,-20.66 -76.5,-78.89 -82.01,-145.07 -5.4,-64.81 17.57,-109.28 64.51,-139.71 C -221.81,-2.16 -111.36,-1.31 0,0"
             style="fill:#dff3fc;fill-opacity:1;fill-rule:nonzero;stroke:none"
             id="path40" />
        </g>
        <g
           id="g42"
           transform="translate(235.4317,375.2402)">
          <path
             d="m 0,0 c -7.173,-28.8 19.464,-57.31 47.526,-69.13 28.063,-11.83 60.244,-10.42 90.307,-4.78 12.972,2.43 26.307,5.85 36.384,14.12 10.078,8.27 15.921,22.63 10.397,34.23 -4.873,10.23 -16.739,15.47 -28.051,18.16 -11.313,2.69 -23.327,3.79 -33.405,9.45 -9.557,5.37 -16.335,14.26 -24.647,21.3 C 83.155,36.34 61.584,42.78 41.62,38.67 21.645,34.56 6.098,24.48 0,0"
             style="fill:#dff3fc;fill-opacity:1;fill-rule:nonzero;stroke:none"
             id="path44" />
        </g>
        <g
           id="g46"
           transform="translate(400.5761,234.7907)">
          <path
             d="m 0,0 c -10.428,0 -18.883,8.455 -18.883,18.883 0,10.416 8.455,18.871 18.883,18.871 10.416,0 18.871,-8.455 18.871,-18.871 C 18.871,8.455 10.416,0 0,0 m 49.719,7.983 v 21.788 h -8.262 c -0.992,3.809 -2.505,7.401 -4.442,10.709 l 5.841,5.851 -15.407,15.408 -5.851,-5.842 c -3.309,1.938 -6.901,3.45 -10.71,4.443 v 8.261 H -10.9 V 60.34 c -3.809,-0.993 -7.401,-2.505 -10.709,-4.443 l -5.851,5.842 -15.408,-15.408 5.842,-5.851 c -1.938,-3.308 -3.441,-6.9 -4.443,-10.709 H -49.73 V 7.983 h 8.261 c 1.002,-3.809 2.505,-7.401 4.443,-10.71 l -5.842,-5.851 15.408,-15.407 5.851,5.841 c 3.308,-1.937 6.9,-3.44 10.709,-4.442 v -8.262 h 21.788 v 8.262 c 3.809,1.002 7.401,2.505 10.71,4.442 l 5.851,-5.841 15.407,15.407 -5.841,5.851 c 1.937,3.309 3.45,6.901 4.442,10.71 z"
             style="fill:#7da846;fill-opacity:1;fill-rule:nonzero;stroke:none"
             id="path48" />
        </g>
        <g
           id="g50"
           transform="translate(361.3167,174.7645)">
          <path
             d="m 0,0 c -5.172,-1.984 -10.973,0.6 -12.957,5.772 -1.982,5.166 0.603,10.967 5.774,12.951 C -2.017,20.705 3.784,18.121 5.766,12.955 7.75,7.783 5.166,1.982 0,0 Z m 23.138,13.418 -4.145,10.805 -4.097,-1.571 c -1.217,1.7 -2.651,3.194 -4.241,4.466 l 1.784,4.013 -10.573,4.709 -1.79,-4.01 c -2.009,0.332 -4.078,0.398 -6.156,0.166 l -1.572,4.097 -10.805,-4.145 1.571,-4.097 c -1.7,-1.217 -3.193,-2.651 -4.465,-4.241 l -4.014,1.784 -4.709,-10.573 4.01,-1.79 c -0.332,-2.009 -0.394,-4.077 -0.166,-6.157 l -4.097,-1.571 4.146,-10.806 4.097,1.572 c 1.221,-1.698 2.65,-3.194 4.24,-4.466 l -1.783,-4.013 10.572,-4.709 1.79,4.01 c 2.01,-0.332 4.077,-0.394 6.157,-0.166 l 1.571,-4.097 10.806,4.145 -1.572,4.097 c 1.698,1.222 3.194,2.651 4.466,4.241 l 4.013,-1.784 4.71,10.573 -4.011,1.79 c 0.332,2.009 0.399,4.078 0.166,6.156 z"
             style="fill:none;fill-opacity:1;stroke:#7da846;stroke-width:1;stroke-linecap:butt;stroke-linejoin:miter;stroke-miterlimit:10;stroke-dasharray:none;stroke-opacity:1"
             id="path52" />
        </g>
        <g
           id="g54"
           transform="translate(333.4189,217.017)">
          <path
             d="m 0,0 c -3.494,-1.341 -7.414,0.406 -8.755,3.9 -1.339,3.49 0.407,7.41 3.902,8.751 3.49,1.339 7.41,-0.407 8.749,-3.898 C 5.237,5.259 3.49,1.339 0,0 Z m 15.634,9.066 -2.801,7.301 -2.768,-1.062 c -0.822,1.149 -1.791,2.158 -2.866,3.018 l 1.206,2.712 -7.144,3.182 -1.21,-2.71 c -1.357,0.224 -2.755,0.269 -4.159,0.112 l -1.062,2.768 -7.301,-2.8 1.062,-2.769 c -1.149,-0.822 -2.158,-1.791 -3.018,-2.865 l -2.711,1.205 -3.183,-7.144 2.71,-1.209 c -0.224,-1.358 -0.266,-2.755 -0.112,-4.16 l -2.768,-1.062 2.801,-7.301 2.768,1.062 c 0.825,-1.148 1.791,-2.158 2.865,-3.018 l -1.205,-2.711 7.144,-3.182 1.209,2.709 c 1.358,-0.224 2.755,-0.266 4.16,-0.112 l 1.062,-2.768 7.301,2.801 -1.062,2.768 C 7.7,-5.343 8.71,-4.378 9.57,-3.303 l 2.711,-1.206 3.182,7.144 -2.709,1.21 c 0.224,1.357 0.269,2.755 0.112,4.159 z"
             style="fill:none;fill-opacity:1;stroke:#7da846;stroke-width:1;stroke-linecap:butt;stroke-linejoin:miter;stroke-miterlimit:10;stroke-dasharray:none;stroke-opacity:1"
             id="path56" />
        </g>
        <g
           id="g58"
           transform="translate(346.511,353.9124)">
          <path
             d="m 0,0 c 0,-10.948 -5.117,-20.707 -13.078,-27.013 -5.861,-4.652 -13.274,-7.413 -21.348,-7.413 -8.053,0 -15.466,2.761 -21.348,7.413 -7.97,6.306 -13.078,16.065 -13.078,27.013 0,19.012 15.415,34.426 34.426,34.426 C -15.414,34.426 0,19.012 0,0"
             style="fill:#cfe965;fill-opacity:1;fill-rule:nonzero;stroke:none"
             id="path60" />
        </g>
        <g
           id="g62"
           transform="translate(346.511,353.9124)">
          <path
             d="m 0,0 c 0,-10.948 -5.117,-20.707 -13.078,-27.013 -5.861,-4.652 -13.274,-7.413 -21.348,-7.413 -8.053,0 -15.466,2.761 -21.348,7.413 -7.97,6.306 -13.078,16.065 -13.078,27.013 0,19.012 15.415,34.426 34.426,34.426 C -15.414,34.426 0,19.012 0,0 Z"
             style="fill:none;stroke:#0097d8;stroke-width:1;stroke-linecap:butt;stroke-linejoin:miter;stroke-miterlimit:10;stroke-dasharray:none;stroke-opacity:1"
             id="path64" />
        </g>
        <g
           id="g66"
           transform="translate(312.0853,376.5114)">
          <path
             d="m 0,0 c 6.223,0 11.268,-5.045 11.268,-11.268 0,-6.224 -5.045,-11.269 -11.268,-11.269 -6.223,0 -11.269,5.045 -11.269,11.269 C -11.269,-5.045 -6.223,0 0,0"
             style="fill:#ffffff;fill-opacity:1;fill-rule:nonzero;stroke:none"
             id="path68" />
        </g>
        <g
           id="g70"
           transform="translate(333.4333,331.2411)">
          <path
             d="m 0,0 c -5.862,-4.652 -13.274,-7.412 -21.348,-7.412 -8.053,0 -15.466,2.76 -21.348,7.412 2.202,9.687 4.228,18.05 6.337,20.17 2.977,2.977 10.886,4.714 15.001,4.714 4.114,0 12.395,-2.109 13.925,-3.639 C -4.311,18.133 -1.623,9.542 0,0"
             style="fill:#ffffff;fill-opacity:1;fill-rule:nonzero;stroke:none"
             id="path72" />
        </g>
        <g
           id="g74"
           transform="translate(262.6103,269.0476)">
          <path
             d="m 0,0 v 17 c 0,4.64 3.76,8.4 8.4,8.4 h 53.56 c 4.64,0 8.4,-3.76 8.4,-8.4 V 0 c 0,-4.64 -3.76,-8.4 -8.4,-8.4 H 8.41 C 3.77,-8.41 0,-4.64 0,0"
             style="fill:#cfe965;fill-opacity:1;fill-rule:nonzero;stroke:none"
             id="path76" />
        </g>
        <g
           id="g78"
           transform="translate(285.2303,269.9376)">
          <path
             d="M 0,0 -25.92,-25.25 16.09,-4.02"
             style="fill:#cfe965;fill-opacity:1;fill-rule:nonzero;stroke:none"
             id="path80" />
        </g>
        <g
           id="g82"
           transform="translate(269.1103,286.4676)">
          <path
             d="m 0,0 v 0.09 c 0,0.69 0.56,1.25 1.25,1.25 h 26.48 c 0.69,0 1.25,-0.56 1.25,-1.25 V 0 c 0,-0.69 -0.56,-1.25 -1.25,-1.25 H 1.25 C 0.56,-1.25 0,-0.69 0,0"
             style="fill:#ffffff;fill-opacity:1;fill-rule:nonzero;stroke:none"
             id="path84" />
        </g>
        <g
           id="g86"
           transform="translate(299.2803,286.4676)">
          <path
             d="m 0,0 v 0.09 c 0,0.69 0.56,1.25 1.25,1.25 h 23.11 c 0.69,0 1.25,-0.56 1.25,-1.25 V 0 c 0,-0.69 -0.56,-1.25 -1.25,-1.25 H 1.25 C 0.56,-1.25 0,-0.69 0,0"
             style="fill:#ffffff;fill-opacity:1;fill-rule:nonzero;stroke:none"
             id="path88" />
        </g>
        <g
           id="g90"
           transform="translate(289.1903,280.7776)">
          <path
             d="m 0,0 v 0.09 c 0,0.69 0.56,1.25 1.25,1.25 h 33.2 c 0.69,0 1.25,-0.56 1.25,-1.25 V 0 c 0,-0.69 -0.56,-1.25 -1.25,-1.25 H 1.25 C 0.56,-1.25 0,-0.69 0,0"
             style="fill:#ffffff;fill-opacity:1;fill-rule:nonzero;stroke:none"
             id="path92" />
        </g>
        <g
           id="g94"
           transform="translate(269.1103,280.7776)">
          <path
             d="m 0,0 v 0.09 c 0,0.69 0.56,1.25 1.25,1.25 h 14.83 c 0.69,0 1.25,-0.56 1.25,-1.25 V 0 c 0,-0.69 -0.56,-1.25 -1.25,-1.25 H 1.25 C 0.56,-1.25 0,-0.69 0,0"
             style="fill:#ffffff;fill-opacity:1;fill-rule:nonzero;stroke:none"
             id="path96" />
        </g>
        <g
           id="g98"
           transform="translate(293.8003,275.0876)">
          <path
             d="m 0,0 v 0.09 c 0,0.69 0.56,1.25 1.25,1.25 h 28.59 c 0.69,0 1.25,-0.56 1.25,-1.25 V 0 c 0,-0.69 -0.56,-1.25 -1.25,-1.25 H 1.25 C 0.56,-1.25 0,-0.69 0,0"
             style="fill:#ffffff;fill-opacity:1;fill-rule:nonzero;stroke:none"
             id="path100" />
        </g>
        <g
           id="g102"
           transform="translate(269.1103,275.0876)">
          <path
             d="M 0,0 V 0.09 C 0,0.78 0.56,1.34 1.25,1.34 H 21 c 0.69,0 1.25,-0.56 1.25,-1.25 V 0 c 0,-0.69 -0.56,-1.25 -1.25,-1.25 H 1.25 C 0.56,-1.25 0,-0.69 0,0"
             style="fill:#ffffff;fill-opacity:1;fill-rule:nonzero;stroke:none"
             id="path104" />
        </g>
        <g
           id="g106"
           transform="translate(269.1103,269.3976)">
          <path
             d="m 0,0 v 0.09 c 0,0.69 0.56,1.25 1.25,1.25 h 7.33 c 0.69,0 1.25,-0.56 1.25,-1.25 V 0 c 0,-0.69 -0.56,-1.25 -1.25,-1.25 H 1.25 C 0.56,-1.25 0,-0.69 0,0"
             style="fill:#ffffff;fill-opacity:1;fill-rule:nonzero;stroke:none"
             id="path108" />
        </g>
        <g
           id="g110"
           transform="translate(281.5303,269.3976)">
          <path
             d="m 0,0 v 0.09 c 0,0.69 0.56,1.25 1.25,1.25 h 40.86 c 0.69,0 1.25,-0.56 1.25,-1.25 V 0 c 0,-0.69 -0.56,-1.25 -1.25,-1.25 H 1.25 C 0.56,-1.25 0,-0.69 0,0"
             style="fill:#ffffff;fill-opacity:1;fill-rule:nonzero;stroke:none"
             id="path112" />
        </g>
        <g
           id="g114"
           transform="translate(88.6161,338.05)">
          <path
             d="M 0,0 C 17.102,6.49 36.226,-2.112 42.717,-19.213 49.207,-36.315 40.605,-55.44 23.504,-61.93 6.402,-68.42 -12.723,-59.818 -19.213,-42.717 -25.703,-25.615 -17.102,-6.49 0,0"
             style="fill:#cfe965;fill-opacity:1;fill-rule:nonzero;stroke:none"
             id="path116" />
        </g>
        <g
           id="g118"
           transform="translate(99.7984,287.3557)">
          <path
             d="m 0,0 c -1.919,-3.996 -6.713,-5.68 -10.709,-3.761 -3.996,1.918 -5.68,6.713 -3.761,10.709 1.918,3.995 6.713,5.679 10.709,3.761 C 0.234,8.79 1.919,3.996 0,0"
             style="fill:#ffffff;fill-opacity:1;fill-rule:nonzero;stroke:none"
             id="path120" />
        </g>
        <g
           id="g122"
           transform="translate(88.3489,287.9489)">
          <path
             d="M 0,0 -0.387,5.09 3.827,7.971 8.429,5.761 8.816,0.671 4.602,-2.209 Z"
             style="fill:#cfe965;fill-opacity:1;fill-rule:nonzero;stroke:none"
             id="path124" />
        </g>
        <g
           id="g126"
           transform="translate(115.4078,319.867)">
          <path
             d="m 0,0 c -1.919,-3.996 -6.713,-5.68 -10.709,-3.761 -3.996,1.918 -5.68,6.713 -3.761,10.709 1.918,3.995 6.713,5.679 10.709,3.761 C 0.234,8.79 1.919,3.996 0,0"
             style="fill:#ffffff;fill-opacity:1;fill-rule:nonzero;stroke:none"
             id="path128" />
        </g>
        <g
           id="g130"
           transform="translate(104.1916,320.9461)">
          <path
             d="M 0,0 0.276,6.472 5.154,10.735 9.756,8.525 9.48,2.053 4.602,-2.209 Z"
             style="fill:#cfe965;fill-opacity:1;fill-rule:nonzero;stroke:none"
             id="path132" />
        </g>
        <g
           id="g134"
           transform="translate(98.1217,294.5392)">
          <path
             d="m 0,0 -6.14,2.948 4.538,10.467 c 0.287,0.664 0.601,1.316 0.939,1.956 L 4.668,25.457 10.807,22.509 6.432,12.201 C 6.093,11.404 5.718,10.623 5.308,9.86 Z"
             style="fill:#ffffff;fill-opacity:1;fill-rule:nonzero;stroke:none"
             id="path136" />
        </g>
        <g
           id="g138"
           transform="translate(123.3742,289.2659)">
          <path
             d="M 0,0 C 1.183,0.548 20.186,-0.318 20.186,-0.318 L 6.488,12.258 Z"
             style="fill:#cfe965;fill-opacity:1;fill-rule:nonzero;stroke:none"
             id="path140" />
        </g>
        <g
           id="g142"
           transform="translate(177.1678,408.5636)">
          <path
             d="M 0,0 C 17.978,0.108 32.639,-14.379 32.747,-32.357 32.855,-50.335 18.369,-64.996 0.391,-65.104 -17.587,-65.212 -32.249,-50.725 -32.357,-32.747 -32.465,-14.769 -17.978,-0.108 0,0"
             style="fill:#cfe965;fill-opacity:1;fill-rule:nonzero;stroke:none"
             id="path144" />
        </g>
        <path
           d="m 178.45,376.415 h -2.174 v 27.338 h 2.174 z"
           style="fill:#ffffff;fill-opacity:1;fill-rule:nonzero;stroke:none"
           id="path146" />
        <g
           id="g148"
           transform="translate(176.1255,376.4149)">
          <path
             d="m 0,0 1.238,-1.788 -22.785,-15.771 -1.237,1.788 z"
             style="fill:#ffffff;fill-opacity:1;fill-rule:nonzero;stroke:none"
             id="path150" />
        </g>
        <g
           id="g152"
           transform="translate(180.3592,376.0116)">
          <path
             d="m 0,0 c 0,-1.655 -1.341,-2.996 -2.996,-2.996 -1.655,0 -2.996,1.341 -2.996,2.996 0,1.655 1.341,2.996 2.996,2.996 C -1.341,2.996 0,1.655 0,0"
             style="fill:#ffffff;fill-opacity:1;fill-rule:nonzero;stroke:none"
             id="path154" />
        </g>
        <g
           id="g156"
           transform="translate(265.7403,155.5876)">
          <path
             d="M 0,0 C -1.93,29.76 11.09,60.56 33.02,78.18 33.7,48.27 20.81,18 0,0"
             style="fill:#a5db61;fill-opacity:1;fill-rule:nonzero;stroke:none"
             id="path158" />
        </g>
        <g
           id="g160"
           transform="translate(295.1803,225.7576)">
          <path
             d="m 0,0 c -9.24,-17.22 -17.23,-35.24 -23.87,-53.83 -8.07,-22.57 -14.42,-46.55 -28.24,-65.47"
             style="fill:none;stroke:#6f8bbf;stroke-width:1;stroke-linecap:round;stroke-linejoin:miter;stroke-miterlimit:10;stroke-dasharray:none;stroke-opacity:1"
             id="path162" />
        </g>
        <g
           id="g164"
           transform="translate(258.8203,136.8676)">
          <path
             d="M 0,0 C 11.1,24.83 33.13,43.59 57.42,48.9 47.08,22.29 23.82,1.99 0,0"
             style="fill:#a5db61;fill-opacity:1;fill-rule:nonzero;stroke:none"
             id="path166" />
        </g>
        <g
           id="g168"
           transform="translate(310.2803,180.2976)">
          <path
             d="M 0,0 C -16.59,-14.6 -33.46,-28.79 -50.61,-42.56"
             style="fill:none;stroke:#6f8bbf;stroke-width:1;stroke-linecap:round;stroke-linejoin:miter;stroke-miterlimit:10;stroke-dasharray:none;stroke-opacity:1"
             id="path170" />
        </g>
        <g
           id="g172"
           transform="translate(252.2703,115.2376)">
          <path
             d="M 0,0 C 14.83,22.15 42.19,33.71 64.83,27.39 48.18,5.52 20.76,-6.07 0,0"
             style="fill:#a5db61;fill-opacity:1;fill-rule:nonzero;stroke:none"
             id="path174" />
        </g>
        <g
           id="g176"
           transform="translate(311.6703,141.0276)">
          <path
             d="M 0,0 C -19.44,-12.16 -40.41,-21.14 -62.03,-26.54"
             style="fill:none;stroke:#6f8bbf;stroke-width:1;stroke-linecap:round;stroke-linejoin:miter;stroke-miterlimit:10;stroke-dasharray:none;stroke-opacity:1"
             id="path178" />
        </g>
        <g
           id="g180"
           transform="translate(260.2803,144.3976)">
          <path
             d="M 0,0 C 4.74,24.94 -2.37,52.74 -18.2,71.13 -24.69,46.62 -18.5,17.9 0,0"
             style="fill:#a5db61;fill-opacity:1;fill-rule:nonzero;stroke:none"
             id="path182" />
        </g>
        <g
           id="g184"
           transform="translate(243.7103,209.1676)">
          <path
             d="M 0,0 C 3.12,-23.2 8.67,-44.93 17.27,-66.17"
             style="fill:none;stroke:#6f8bbf;stroke-width:1;stroke-linecap:round;stroke-linejoin:miter;stroke-miterlimit:10;stroke-dasharray:none;stroke-opacity:1"
             id="path186" />
        </g>
        <g
           id="g188"
           transform="translate(252.1403,123.1576)">
          <path
             d="M 0,0 C -2.02,25.64 -15.16,49.72 -34.38,63.01 -33.27,49.43 -29.66,36.34 -23.93,24.44 -17.34,10.77 -7.66,2.1 0,0"
             style="fill:#a5db61;fill-opacity:1;fill-rule:nonzero;stroke:none"
             id="path190" />
        </g>
        <g
           id="g192"
           transform="translate(220.6103,180.9776)">
          <path
             d="M 0,0 C 7.56,-21.38 18.44,-41.2 32.01,-58.36"
             style="fill:none;stroke:#6f8bbf;stroke-width:1;stroke-linecap:round;stroke-linejoin:miter;stroke-miterlimit:10;stroke-dasharray:none;stroke-opacity:1"
             id="path194" />
        </g>
        <g
           id="g196"
           transform="translate(400.5703,129.3076)">
          <path
             d="M 0,0 C 10.49,27.29 34.62,49.43 61.23,56.17 49.57,29.25 25.77,7.55 0,0"
             style="fill:#a5db61;fill-opacity:1;fill-rule:nonzero;stroke:none"
             id="path198" />
        </g>
        <g
           id="g200"
           transform="translate(455.3503,179.8076)">
          <path
             d="m 0,0 c -15.22,-11.57 -29.68,-24.36 -43.16,-38.21 -16.38,-16.82 -31.83,-35.58 -51.8,-46.8"
             style="fill:none;stroke:#6f8bbf;stroke-width:1;stroke-linecap:round;stroke-linejoin:miter;stroke-miterlimit:10;stroke-dasharray:none;stroke-opacity:1"
             id="path202" />
        </g>
        <g
           id="g204"
           transform="translate(386.7803,115.4576)">
          <path
             d="M 0,0 C 19.99,17.59 47.15,25.31 70.79,20.13 50.75,0.64 21.87,-7.95 0,0"
             style="fill:#a5db61;fill-opacity:1;fill-rule:nonzero;stroke:none"
             id="path206" />
        </g>
        <g
           id="g208"
           transform="translate(450.0603,133.1376)">
          <path
             d="M 0,0 C -20.65,-6.24 -41.38,-11.99 -62.18,-17.26"
             style="fill:none;stroke:#6f8bbf;stroke-width:1;stroke-linecap:round;stroke-linejoin:miter;stroke-miterlimit:10;stroke-dasharray:none;stroke-opacity:1"
             id="path210" />
        </g>
        <g
           id="g212"
           transform="translate(372.1203,98.8576)">
          <path
             d="M 0,0 C 22.19,13.68 51.11,12.81 68.53,-2.06 44.85,-14.74 15.86,-13.87 0,0"
             style="fill:#a5db61;fill-opacity:1;fill-rule:nonzero;stroke:none"
             id="path214" />
        </g>
        <g
           id="g216"
           transform="translate(435.2003,97.5976)">
          <path
             d="M 0,0 C -22.16,-2.9 -44.39,-2.34 -65.7,1.67"
             style="fill:none;stroke:#6f8bbf;stroke-width:1;stroke-linecap:round;stroke-linejoin:miter;stroke-miterlimit:10;stroke-dasharray:none;stroke-opacity:1"
             id="path218" />
        </g>
        <g
           id="g220"
           transform="translate(391.1603,121.5676)">
          <path
             d="M 0,0 C 14.41,20.28 19.52,47.95 13.07,70.79 -2.72,51.61 -9.02,23.5 0,0"
             style="fill:#a5db61;fill-opacity:1;fill-rule:nonzero;stroke:none"
             id="path222" />
        </g>
        <g
           id="g224"
           transform="translate(403.0603,186.0376)">
          <path
             d="M 0,0 C -6.76,-21.94 -10.75,-43.56 -11.85,-66"
             style="fill:none;stroke:#6f8bbf;stroke-width:1;stroke-linecap:round;stroke-linejoin:miter;stroke-miterlimit:10;stroke-dasharray:none;stroke-opacity:1"
             id="path226" />
        </g>
        <g
           id="g228"
           transform="translate(375.2603,105.9676)">
          <path
             d="M 0,0 C 8.72,23.66 6.98,50.48 -4.56,70.16 -9.14,57.61 -11.32,44.48 -11.13,31.54 -10.92,16.68 -5.92,5 0,0"
             style="fill:#a2c7eb;fill-opacity:1;fill-rule:nonzero;stroke:none"
             id="path230" />
        </g>
        <g
           id="g232"
           transform="translate(371.0803,170.3476)">
          <path
             d="M 0,0 C -2.08,-22.13 -0.59,-44.23 4.37,-65.05"
             style="fill:none;stroke:#6f8bbf;stroke-width:1;stroke-linecap:round;stroke-linejoin:miter;stroke-miterlimit:10;stroke-dasharray:none;stroke-opacity:1"
             id="path234" />
        </g>
        <g
           id="g236"
           transform="translate(103.2674,177.0224)">
          <path
             d="M 0,0 C -10.694,32.709 -40.537,59.138 -75.254,66.638 -60.659,38.34 -34.185,15.819 0,0"
             style="fill:#a5db61;fill-opacity:1;fill-rule:nonzero;stroke:none"
             id="path238" />
        </g>
        <g
           id="g240"
           transform="translate(105.0781,171.9476)">
          <path
             d="M 0,0 C -23.425,13.247 -52.775,16.167 -78.218,7.794 -54.619,-3.993 -26.657,-7.278 0,0"
             style="fill:#a5db61;fill-opacity:1;fill-rule:nonzero;stroke:none"
             id="path242" />
        </g>
        <g
           id="g244"
           transform="translate(111.5573,164.8547)">
          <path
             d="M 0,0 C -25.317,3.509 -51.829,-2.732 -72.39,-17.037 -49.076,-25.512 -21.104,-20.015 0,0"
             style="fill:#a5db61;fill-opacity:1;fill-rule:nonzero;stroke:none"
             id="path246" />
        </g>
        <g
           id="g248"
           transform="translate(119.4506,149.3604)">
          <path
             d="m 0,0 c -25.07,0.104 -49.721,-11.811 -64.457,-31.158 11.158,-2.235 23.006,-0.899 33.243,3.737 C -20.978,-22.786 -12.402,-14.875 0,0"
             style="fill:#a5db61;fill-opacity:1;fill-rule:nonzero;stroke:none"
             id="path250" />
        </g>
        <g
           id="g252"
           transform="translate(137.1259,123.4349)">
          <path
             d="m 0,0 c -24.721,4.238 -51.061,-3.422 -68.886,-20.037 10.639,-4.041 22.552,-4.687 33.438,-1.816 C -24.562,-18.983 -14.761,-12.608 0,0"
             style="fill:#a5db61;fill-opacity:1;fill-rule:nonzero;stroke:none"
             id="path254" />
        </g>
        <g
           id="g256"
           transform="translate(110.4366,175.4725)">
          <path
             d="M 0,0 C -16.324,22.003 -20.754,51.653 -11.48,76.877 -4.397,64.884 1.713,52.204 4.565,38.726 7.417,25.248 6.863,10.877 0,0"
             style="fill:#a5db61;fill-opacity:1;fill-rule:nonzero;stroke:none"
             id="path258" />
        </g>
        <g
           id="g260"
           transform="translate(120.4105,154.2437)">
          <path
             d="M 0,0 C -3.866,23.377 4.127,48.153 21.01,65.083 22.952,40.898 15.553,16.261 0,0"
             style="fill:#a2c7eb;fill-opacity:1;fill-rule:nonzero;stroke:none"
             id="path262" />
        </g>
        <g
           id="g264"
           transform="translate(35.6129,237.7989)">
          <path
             d="M 0,0 C 49.684,-31.789 88.54,-79.172 109.051,-133.006"
             style="fill:none;stroke:#6f8bbf;stroke-width:1;stroke-linecap:round;stroke-linejoin:miter;stroke-miterlimit:10;stroke-dasharray:none;stroke-opacity:1"
             id="path266" />
        </g>
        <g
           id="g268"
           transform="translate(100.5002,240.7501)">
          <path
             d="M 0,0 C 6.043,-24.539 9.72,-49.592 10.964,-74.719"
             style="fill:none;stroke:#6f8bbf;stroke-width:1;stroke-linecap:round;stroke-linejoin:miter;stroke-miterlimit:10;stroke-dasharray:none;stroke-opacity:1"
             id="path270" />
        </g>
        <g
           id="g272"
           transform="translate(137.7084,209.8355)">
          <path
             d="M 0,0 C -1.98,-19.798 -8.098,-39.148 -17.872,-56.577"
             style="fill:none;stroke:#6f8bbf;stroke-width:1;stroke-linecap:round;stroke-linejoin:miter;stroke-miterlimit:10;stroke-dasharray:none;stroke-opacity:1"
             id="path274" />
        </g>
        <g
           id="g276"
           transform="translate(37.3184,179.1706)">
          <path
             d="M 0,0 C 22.778,-4.331 45.93,-6.679 69.086,-7.024"
             style="fill:none;stroke:#6f8bbf;stroke-width:1;stroke-linecap:round;stroke-linejoin:miter;stroke-miterlimit:10;stroke-dasharray:none;stroke-opacity:1"
             id="path278" />
        </g>
        <g
           id="g280"
           transform="translate(51.0441,149.7627)">
          <path
             d="M 0,0 C 21.003,1.526 41.666,6.614 60.766,14.972"
             style="fill:none;stroke:#6f8bbf;stroke-width:1;stroke-linecap:round;stroke-linejoin:miter;stroke-miterlimit:10;stroke-dasharray:none;stroke-opacity:1"
             id="path282" />
        </g>
        <g
           id="g284"
           transform="translate(63.6272,121.7339)">
          <path
             d="M 0,0 C 19.38,9.667 38.762,19.345 58.142,29.013"
             style="fill:none;stroke:#6f8bbf;stroke-width:1;stroke-linecap:round;stroke-linejoin:miter;stroke-miterlimit:10;stroke-dasharray:none;stroke-opacity:1"
             id="path286" />
        </g>
        <g
           id="g288"
           transform="translate(76.2321,104.6632)">
          <path
             d="M 0,0 C 25.303,4.882 32.821,10.708 60.904,18.77"
             style="fill:none;stroke:#6f8bbf;stroke-width:1;stroke-linecap:round;stroke-linejoin:miter;stroke-miterlimit:10;stroke-dasharray:none;stroke-opacity:1"
             id="path290" />
        </g>
        <g
           id="g292"
           transform="translate(236.4203,151.0076)">
          <path
             d="m 0,0 c 0,0 2.19,-20.07 4.64,-21.68 4.38,-2.89 55.08,-9.57 55.08,-9.57 l -1.66,-13.19 c 0,0 -69.44,-6.24 -72.39,-2.77 -5.12,6.02 -14.12,35.06 -14.12,35.06 z"
             style="fill:#e06a58;fill-opacity:1;fill-rule:nonzero;stroke:none"
             id="path294" />
        </g>
        <g
           id="g296"
           transform="translate(202.9403,202.6776)">
          <path
             d="m 0,0 5.61,13.47 c 0,0 15.22,-7.15 20.24,-15.98 5.37,-9.44 11.94,-59.63 11.94,-59.63 0,0 -26.87,-6.19 -31.81,-3.56 C 1.04,-63.07 0,0 0,0"
             style="fill:#f2ae30;fill-opacity:1;fill-rule:nonzero;stroke:none"
             id="path298" />
        </g>
        <g
           id="g300"
           transform="translate(160.2103,265.1976)">
          <path
             d="m 0,0 c -3.93,1.44 -8.09,2.7 -12.3,2.38 -4.21,-0.32 -8.51,-2.55 -9.94,-6.25 -1.02,-2.62 -0.55,-5.71 -2.16,-8.07 -1.54,-2.26 -4.6,-3.2 -7.46,-3.39 -2.87,-0.2 -5.76,0.18 -8.61,-0.19 -8.8,-1.17 -15.08,-10.73 -12.19,-18.56 1.15,-3.12 3.51,-6.1 2.97,-9.35 -0.57,-3.48 -4.22,-5.77 -5.72,-9 -1.99,-4.3 0.39,-9.51 4.32,-12.44 3.93,-2.92 9.04,-4.03 14,-4.77 6.83,-1.02 13.88,-1.5 20.63,-0.06 6.75,1.44 13.2,5 16.69,10.56 1.55,2.46 2.49,5.24 4.29,7.55 3.72,4.77 10.31,6.62 15.5,10 5.67,3.71 9.83,10.93 6.49,16.58 -3.22,5.43 -11.6,6.64 -14.96,11.99 -1.39,2.21 -1.72,4.84 -2.62,7.25 C 8.01,-3.35 5.81,-2.13 0,0"
             style="fill:#0a2240;fill-opacity:1;fill-rule:nonzero;stroke:none"
             id="path302" />
        </g>
        <g
           id="g304"
           transform="translate(183.1103,198.5876)">
          <path
             d="m 0,0 c 0.99,-1.14 2.16,-2.39 3.78,-2.5 1.71,-0.12 3.14,1.09 4.24,2.26 5.68,6.01 9.43,13.39 10.95,21 -1.41,0.8 -2.77,1.57 -4,2.29 -1.14,0.68 -2,1.63 -2.49,2.74 -0.34,0.82 -0.46,1.68 -0.37,2.58 0.8,7.52 1.51,11.71 4.15,19.34 -12.54,2.83 -24.37,6.19 -31.17,11.87 -0.83,-3.5 -1.81,-10.35 -3.9,-17.14 -2.23,-7.19 -5.71,-14.3 -11.61,-17.36 C -18.84,18.24 -8.51,9.74 0,0"
             style="fill:#f9a07b;fill-opacity:1;fill-rule:nonzero;stroke:none"
             id="path306" />
        </g>
        <g
           id="g308"
           transform="translate(195.2203,226.9476)">
          <path
             d="m 0,0 c -0.09,-0.9 0.03,-1.77 0.37,-2.58 -7.42,-9 -24.01,2.76 -31.29,16.65 2.09,6.79 3.07,13.64 3.9,17.14 C -20.23,25.53 -8.39,22.16 4.15,19.34 1.51,11.71 0.8,7.53 0,0"
             style="fill:#e06a58;fill-opacity:1;fill-rule:nonzero;stroke:none"
             id="path310" />
        </g>
        <g
           id="g312"
           transform="translate(215.8803,118.1476)">
          <path
             d="m 0,0 c -1.64,-10.86 10.08,-22.55 10.37,-28.35 -24.89,0 -77.03,-1.52 -103.58,2.09 -1.21,6.7 11.9,21.77 11.9,36.65 0,1.97 -0.08,4.13 -0.24,6.45 -0.42,6.64 -1.4,14.54 -2.49,22.64 -2.96,21.73 -6.9,44.97 -3.99,49.79 5.7,9.39 19.03,15.77 25.64,18.51 2.27,0.94 3.75,1.45 3.86,1.51 8.29,-14.14 25.16,-26.2 31.53,-25.66 1.77,0.14 7.02,1.97 10.49,19.44 1.35,-0.77 2.7,-1.48 4.04,-2.17 C -5.88,97.47 0.3,94.64 2.08,90.23 6.78,78.62 11.39,49.35 10.37,38.94 9.34,28.44 5.12,20.42 2.16,9.88 1.47,7.41 0.84,4.79 0.33,1.97 0.2,1.34 0.1,0.68 0,0"
             style="fill:#ffc73c;fill-opacity:1;fill-rule:nonzero;stroke:none"
             id="path314" />
        </g>
        <g
           id="g316"
           transform="translate(226.2503,89.7976)">
          <path
             d="m 0,0 c -24.89,0 -77.03,-1.52 -103.58,2.09 -1.21,6.7 11.9,21.77 11.9,36.65 0,1.97 -0.08,4.13 -0.24,6.45 -0.42,6.64 -1.4,14.54 -2.49,22.64 4.71,-4.97 11.58,16.03 14.62,9.88 16.45,-33.2 29.42,-41.93 51.96,-41.93 6.72,0 12.92,0.93 19.62,2.45 -0.69,-2.47 -1.32,-5.09 -1.83,-7.91 -0.12,-0.64 -0.23,-1.3 -0.33,-1.98 C -12.01,17.5 -0.29,5.81 0,0"
             style="fill:#ffbb33;fill-opacity:1;fill-rule:nonzero;stroke:none"
             id="path318" />
        </g>
        <g
           id="g320"
           transform="translate(203.4103,219.0476)">
          <path
             d="m 0,0 c -1.07,-7.77 -4.24,-18.24 -13.46,-21 -12.46,-3.73 -30.49,19.55 -36.46,27.88 2.27,0.94 3.75,1.45 3.86,1.51 8.29,-14.14 25.16,-26.2 31.53,-25.66 1.77,0.14 7.02,1.97 10.49,19.44 C -2.69,1.41 -1.34,0.7 0,0"
             style="fill:#fce172;fill-opacity:1;fill-rule:nonzero;stroke:none"
             id="path322" />
        </g>
        <g
           id="g324"
           transform="translate(208.5303,101.4876)">
          <path
             d="m 0,0 -0.09,-8.67 155,-0.92 0.32,9.83 z"
             style="fill:#325f73;fill-opacity:1;fill-rule:nonzero;stroke:none"
             id="path326" />
        </g>
        <g
           id="g328"
           transform="translate(430.6203,178.8376)">
          <path
             d="m 0,0 -3.45,3.5 -112.9,0.74 -56.64,-81.91 2.96,-2.38 z"
             style="fill:#325f73;fill-opacity:1;fill-rule:nonzero;stroke:none"
             id="path330" />
        </g>
        <g
           id="g332"
           transform="translate(316.4503,180.0476)">
          <path
             d="m 0,0 -55.86,-81.26 106.7,-0.53 63.33,80.58 z"
             style="fill:#0b2d50;fill-opacity:1;fill-rule:nonzero;stroke:none"
             id="path334" />
        </g>
        <g
           id="g336"
           transform="translate(343.4103,140.5976)">
          <path
             d="m 0,0 c 6.859,0 12.42,-2.78 12.42,-6.21 0,-3.43 -5.561,-6.21 -12.42,-6.21 -6.859,0 -12.42,2.78 -12.42,6.21 C -12.42,-2.78 -6.859,0 0,0"
             style="fill:#7da846;fill-opacity:1;fill-rule:nonzero;stroke:none"
             id="path338" />
        </g>
        <g
           id="g340"
           transform="translate(210.8225,260.2653)">
          <path
             d="M 0,0 C 1.759,9.442 8.234,16.155 14.462,14.995 20.69,13.834 24.312,5.239 22.552,-4.203 20.793,-13.645 14.318,-20.358 8.09,-19.197 1.863,-18.037 -1.76,-9.442 0,0"
             style="fill:#56c4f9;fill-opacity:1;fill-rule:nonzero;stroke:none"
             id="path342" />
        </g>
        <g
           id="g344"
           transform="translate(233.3903,285.6976)">
          <path
             d="m 0,0 c -1.16,-8.22 -4.83,-17.28 -10.18,-27.29 -1.88,8.2 -3.08,18.19 -4.74,28.18 -1.69,10.01 -3.84,20.02 -7.57,28.2 -0.84,1.81 -1.75,3.54 -2.74,5.14 2.21,0.21 4.45,0 6.58,-0.59 3.33,-0.89 6.45,-2.61 9,-4.91 4.24,-3.77 7.08,-8.91 8.77,-14.33 C 0.51,9.9 0.76,5.12 0,0"
             style="fill:#0b2d50;fill-opacity:1;fill-rule:nonzero;stroke:none"
             id="path346" />
        </g>
        <g
           id="g348"
           transform="translate(227.1103,277.1976)">
          <path
             d="m 0,0 c -0.06,-1.62 -0.17,-3.27 -0.32,-4.91 -2.28,-26.6 -13.45,-44.85 -30.54,-44.85 -24.13,0 -39.77,27.06 -39.77,53.57 0,26.15 16.02,45.08 34.77,42.89 10.81,-1.24 18.71,-4.83 24.32,-10.09 3.71,-3.5 6.39,-7.73 8.22,-12.54 2.09,-5.39 3.1,-11.49 3.31,-18.06 0,-0.02 0.02,-0.04 0.02,-0.06 C 0.09,4.01 0.07,2.03 0,0"
             style="fill:#f9a07b;fill-opacity:1;fill-rule:nonzero;stroke:none"
             id="path350" />
        </g>
        <g
           id="g352"
           transform="translate(227.1103,277.1976)">
          <path
             d="m 0,0 c -0.72,2.57 -1.79,5.08 -3.25,7.33 -14.23,-7.44 -31.19,-10.31 -47.27,-7.59 -3.06,-2.55 -6.05,-5.06 -9.06,-7.57 0.06,12.1 0.23,20.29 4.95,26.15 4.43,5.5 11.82,7.57 18.82,8.47 7.88,1.03 15.89,0.99 23.75,-0.15 3.01,-0.42 6.13,-1.07 8.75,-2.59 C -1.22,18.66 -0.21,12.56 0,5.99 0,5.97 0.02,5.95 0.02,5.93 0.09,4.01 0.07,2.03 0,0"
             style="fill:#e06a58;fill-opacity:1;fill-rule:nonzero;stroke:none"
             id="path354" />
        </g>
        <g
           id="g356"
           transform="translate(230.5903,293.5776)">
          <path
             d="m 0,0 c -3.31,-2.8 -7.46,-5.12 -12.12,-7 -13.26,-5.35 -30.49,-7.12 -43.92,-6.47 -6.6,-14.5 -9.27,-19.7 -10.96,-32.35 -6.45,6.05 -11.7,17.13 -13.26,25.84 -1.54,8.68 -1.39,17.79 1.03,26.32 3.81,13.45 13.42,20.65 20.08,24.15 1.66,0.91 3.16,1.54 4.32,2 8.51,3.29 18.1,2.99 26.83,0.32 4.76,-1.48 8.77,-3.98 12.14,-7.06 C -9.05,19.6 -4.84,11.27 -2.12,5.03 -1.26,3.12 -0.57,1.39 0,0"
             style="fill:#0b2d50;fill-opacity:1;fill-rule:nonzero;stroke:none"
             id="path358" />
        </g>
        <g
           id="g360"
           transform="translate(233.3903,285.6976)">
          <path
             d="m 0,0 c -0.55,2.91 -1.37,5.73 -2.53,8.45 -0.65,1.54 -1.45,3.03 -2.38,4.47 -3.03,4.76 -7.44,8.68 -12.77,10.41 -1.52,2.13 -3.12,4.05 -4.8,5.75 -6.05,6.15 -13.15,9.67 -20.67,10.9 -6.26,1.01 -12.77,0.44 -18.78,-1.6 1.66,0.91 3.16,1.54 4.32,2 8.51,3.29 18.1,2.99 26.83,0.32 4.76,-1.48 8.77,-3.98 12.14,-7.06 3.33,-0.89 6.45,-2.61 9,-4.91 C -5.4,24.96 -2.56,19.82 -0.87,14.4 0.51,9.9 0.76,5.12 0,0"
             style="fill:#225570;fill-opacity:1;fill-rule:nonzero;stroke:none"
             id="path362" />
        </g>
        <g
           id="g364"
           transform="translate(182.2403,269.3876)">
          <path
             d="M 0,0 C 4.46,2.55 9.09,3.7 15.58,1.33"
             style="fill:none;stroke:#0b2d50;stroke-width:2;stroke-linecap:round;stroke-linejoin:miter;stroke-miterlimit:10;stroke-dasharray:none;stroke-opacity:1"
             id="path366" />
        </g>
        <g
           id="g368"
           transform="translate(212.7803,269.5676)">
          <path
             d="M 0,0 C 3.82,2.85 9.48,3.14 12.43,0"
             style="fill:none;stroke:#0b2d50;stroke-width:2;stroke-linecap:round;stroke-linejoin:miter;stroke-miterlimit:10;stroke-dasharray:none;stroke-opacity:1"
             id="path370" />
        </g>
        <g
           id="g372"
           transform="translate(208.1703,255.0276)">
          <path
             d="M 0,0 C 0.39,-2.02 0.18,-6.49 -0.78,-8.5"
             style="fill:none;stroke:#cc454e;stroke-width:2;stroke-linecap:round;stroke-linejoin:miter;stroke-miterlimit:10;stroke-dasharray:none;stroke-opacity:1"
             id="path374" />
        </g>
        <g
           id="g376"
           transform="translate(193.1003,259.4676)">
          <path
             d="m 0,0 c 1.016,0 1.84,-1.298 1.84,-2.9 0,-1.602 -0.824,-2.9 -1.84,-2.9 -1.016,0 -1.84,1.298 -1.84,2.9 0,1.602 0.824,2.9 1.84,2.9"
             style="fill:#262d40;fill-opacity:1;fill-rule:nonzero;stroke:none"
             id="path378" />
        </g>
        <g
           id="g380"
           transform="translate(217.1503,260.8176)">
          <path
             d="m 0,0 c 1.016,0 1.84,-1.298 1.84,-2.9 0,-1.602 -0.824,-2.9 -1.84,-2.9 -1.016,0 -1.84,1.298 -1.84,2.9 0,1.602 0.824,2.9 1.84,2.9"
             style="fill:#262d40;fill-opacity:1;fill-rule:nonzero;stroke:none"
             id="path382" />
        </g>
        <g
           id="g384"
           transform="translate(205.8903,242.5776)">
          <path
             d="M 0,0 C 0,0 -0.36,-0.7 -1.05,-1.65 -2.13,-3.1 -3.97,-5.1 -6.48,-5.88 h -0.01 c -1.06,-0.34 -2.21,-0.46 -3.49,-0.23 -3.76,0.67 -4.75,4.14 -4.93,6.81 -0.04,0.52 -0.04,1 -0.03,1.44 0.02,1.08 0.14,1.8 0.14,1.8 C -8.81,0.64 0,0 0,0"
             style="fill:#cc454e;fill-opacity:1;fill-rule:nonzero;stroke:none"
             id="path386" />
        </g>
        <g
           id="g388"
           transform="translate(205.8903,242.5776)">
          <path
             d="m 0,0 c 0,0 -0.36,-0.7 -1.05,-1.65 -3.06,0.04 -9.32,1.61 -13.89,3.79 0.02,1.08 0.14,1.8 0.14,1.8 C -8.81,0.64 0,0 0,0"
             style="fill:#ffffff;fill-opacity:1;fill-rule:nonzero;stroke:none"
             id="path390" />
        </g>
        <g
           id="g392"
           transform="translate(199.4003,236.7076)">
          <path
             d="M 0,0 C -1.06,-0.34 -2.21,-0.46 -3.49,-0.23 -7.25,0.44 -8.24,3.91 -8.42,6.58 -6.6,6.36 -4.84,5.66 -3.38,4.55 -1.85,3.38 -0.68,1.79 0,0"
             style="fill:#e8729b;fill-opacity:1;fill-rule:nonzero;stroke:none"
             id="path394" />
        </g>
        <g
           id="g396"
           transform="translate(163.6503,273.9776)">
          <path
             d="m 0,0 c 0,0 -0.21,12.47 4.98,24.86 6.51,15.55 19.78,22.2 32.65,22.65 15.51,0.55 25.22,-9.86 25.22,-9.86 0,0 -5.05,8.91 -15.01,11.47 C 41.3,50.8 31.43,51.07 23.51,47.85 15.35,44.54 5.18,35.35 1.5,25.64 -2.17,15.93 -3.96,0.81 -3.96,0.81 Z"
             style="fill:#3d86e0;fill-opacity:1;fill-rule:nonzero;stroke:none"
             id="path398" />
        </g>
        <g
           id="g400"
           transform="translate(159.6036,277.9514)">
          <path
             d="M 0,0 C 6.641,0.69 12.873,-6.908 13.919,-16.971 14.965,-27.034 10.43,-35.752 3.789,-36.442 -2.852,-37.133 -9.084,-29.534 -10.13,-19.471 -11.177,-9.408 -6.641,-0.69 0,0"
             style="fill:#56c4f9;fill-opacity:1;fill-rule:nonzero;stroke:none"
             id="path402" />
        </g>
        <g
           id="g404"
           transform="translate(156.2313,272.0579)">
          <path
             d="m 0,0 c 4.287,0.644 8.682,-4.948 9.815,-12.49 1.133,-7.543 -1.423,-14.179 -5.711,-14.823 -4.287,-0.645 -8.681,4.947 -9.815,12.49 C -6.844,-7.281 -4.287,-0.644 0,0"
             style="fill:#3d86e0;fill-opacity:1;fill-rule:nonzero;stroke:none"
             id="path406" />
        </g>
        <g
           id="g408"
           transform="translate(201.3803,235.0876)">
          <path
             d="m 0,0 c 3.557,0 6.44,-1.795 6.44,-4.01 0,-2.215 -2.883,-4.01 -6.44,-4.01 -3.557,0 -6.44,1.795 -6.44,4.01 C -6.44,-1.795 -3.557,0 0,0"
             style="fill:#3a92c9;fill-opacity:1;fill-rule:nonzero;stroke:none"
             id="path410" />
        </g>
        <g
           id="g412"
           transform="translate(169.0303,244.4876)">
          <path
             d="M 0,0 C 0,0 9.46,-12.16 25.91,-13.41"
             style="fill:none;stroke:#3a92c9;stroke-width:2;stroke-linecap:round;stroke-linejoin:miter;stroke-miterlimit:10;stroke-dasharray:none;stroke-opacity:1"
             id="path414" />
        </g>
        <g
           id="g416"
           transform="translate(208.4403,124.6376)">
          <path
             d="m 0,0 -0.62,-15.99 c 0,0 -57.83,-17.33 -67.38,-11.85 -4.66,2.68 -9.01,17.42 -12.26,31.81 -3.4,15.12 -5.58,29.84 -5.58,29.84 l 33.9,6.64 c 0,0 0.02,-20.67 1.17,-32.62 0.41,-4.45 1,-7.69 1.79,-8.22 C -45.99,-2.36 0,0 0,0"
             style="fill:#f9a07b;fill-opacity:1;fill-rule:nonzero;stroke:none"
             id="path418" />
        </g>
        <g
           id="g420"
           transform="translate(157.6703,132.4876)">
          <path
             d="m 0,0 c -6.16,-2 -18.05,-5.09 -29.49,-3.87 -3.4,15.12 -5.58,29.84 -5.58,29.84 l 33.9,6.64 C -1.17,32.62 -1.15,11.95 0,0"
             style="fill:#e06a58;fill-opacity:1;fill-rule:nonzero;stroke:none"
             id="path422" />
        </g>
        <g
           id="g424"
           transform="translate(206.7903,124.4776)">
          <path
             d="m 0,0 c 8.6,1.84 23.16,6.26 29.2,7.78 4.29,1.08 15.46,-4.7 18.41,-10.15 1.29,-2.38 2.51,-15.86 -1.96,-14.47 -2.24,0.7 -1.87,6.48 -2.57,8.84 -0.57,1.92 -2.39,3.78 -5.16,5.38 1.85,-4.61 1.78,-8.63 1.58,-13.61 -0.04,-1.1 -0.11,-2.25 -0.64,-3.2 -0.54,-0.95 -1.7,-1.63 -2.7,-1.21 -1.02,0.42 -1.37,1.69 -1.6,2.8 -0.79,3.84 -1.59,7.68 -1.91,12.02 0.08,-4.27 -0.01,-8.55 -0.28,-12.81 -0.2,-3.26 -1.82,-5.05 -3.81,-4.48 -0.89,0.25 -1.25,1.07 -1.63,2.15 -0.6,-2.09 -2.1,-4.4 -4.04,-3.52 -1.18,0.53 -1.91,4.79 -1.7,9.17 -3.72,-2.31 -7.92,-3.29 -12.76,-3.51 -4.34,-0.2 -8.78,0.61 -11.39,3.56 C -2.7,-10.65 -1.18,-3.83 0,0"
             style="fill:#f9a07b;fill-opacity:1;fill-rule:nonzero;stroke:none"
             id="path426" />
        </g>
        <g
           id="g428"
           transform="translate(233.8103,104.1776)">
          <path
             d="M 0,0 C 0.29,3.46 -0.01,6.97 -0.89,10.31"
             style="fill:none;stroke:#cc454e;stroke-width:1;stroke-linecap:round;stroke-linejoin:miter;stroke-miterlimit:10;stroke-dasharray:none;stroke-opacity:1"
             id="path430" />
        </g>
        <g
           id="g432"
           transform="translate(152.6903,198.6276)">
          <path
             d="m 0,0 c -2.46,6.93 -11.47,21.11 -11.47,21.11 0,0 -13.75,-5.72 -18.63,-15.43 -8.26,-16.44 -4.06,-63.64 -4.06,-63.64 11.13,-4.66 33.47,-4.73 42.98,-3.39 0,0 -3.89,47.5 -8.82,61.35"
             style="fill:#ffc73c;fill-opacity:1;fill-rule:nonzero;stroke:none"
             id="path434" />
        </g>
        <g
           id="g436"
           transform="translate(154.4403,195.7276)">
          <path
             d="M 0,0 C 3.75,-17.95 5.76,-34.69 6.4,-51.09"
             style="fill:none;stroke:#f2ae30;stroke-width:1;stroke-linecap:round;stroke-linejoin:miter;stroke-miterlimit:10;stroke-dasharray:none;stroke-opacity:1"
             id="path438" />
        </g>
        <path
           d="m 54.46,94.748 h 394.28 v -9.89 H 54.46 Z"
           style="fill:#0b2d50;fill-opacity:1;fill-rule:nonzero;stroke:none"
           id="path440" />
      </g>
    </g>
  </g>
</svg>
